<svg width="1024" height="1024" viewBox="0 0 1024 1024" fill="none" xmlns="http://www.w3.org/2000/svg">
<g clip-path="url(#clip0)">
<rect width="1024" height="1024" fill="white"/>
<ellipse cx="514.637" cy="521.437" rx="468.052" ry="447.878" fill="#61C4EF"/>
<ellipse cx="514.637" cy="521.437" rx="468.052" ry="447.878" fill="url(#paint0_linear)"/>
<path d="M66.079 358.019C181.596 153.699 204.116 248.125 279.827 252.087C298.522 253.065 387.387 301.926 398.898 336.536C411.215 373.567 382.42 393.966 398.898 405.409C442.583 435.746 423.412 585.415 409.041 636.787C394.669 688.159 301.816 634.48 255.685 656.3C225.635 670.515 211.071 706.479 211.071 706.479C181.303 779.605 241.742 773.383 269.625 845.863C286.598 889.982 368.141 930.996 255.685 904.404C143.229 877.813 -49.4382 562.338 66.079 358.019Z" fill="black"/>
<path d="M66.079 358.019C181.596 153.699 204.116 248.125 279.827 252.087C298.522 253.065 387.387 301.926 398.898 336.536C411.215 373.567 382.42 393.966 398.898 405.409C442.583 435.746 423.412 585.415 409.041 636.787C394.669 688.159 301.816 634.48 255.685 656.3C225.635 670.515 211.071 706.479 211.071 706.479C181.303 779.605 241.742 773.383 269.625 845.863C286.598 889.982 368.141 930.996 255.685 904.404C143.229 877.813 -49.4382 562.338 66.079 358.019Z" fill="url(#paint1_linear)"/>
<path d="M829.119 773.901C816.93 748.084 708.354 813.699 679.871 815.658C596.902 821.365 538.2 799.226 545.103 758.25C551.934 717.697 665.101 747.309 690.134 714.682C716.27 680.619 642.8 667.608 667.26 632.323C697.428 588.805 726.683 669.235 779.635 669.366C810.954 669.443 877.931 636.115 904.602 614.78C929.58 594.799 948.597 458.351 975.876 511.938C996.964 553.364 1007.78 614.78 946.367 740.402C884.951 866.025 857.035 815.658 857.035 815.658L829.119 773.901Z" fill="black"/>
<path d="M829.119 773.901C816.93 748.084 708.354 813.699 679.871 815.658C596.902 821.365 538.2 799.226 545.103 758.25C551.934 717.697 665.101 747.309 690.134 714.682C716.27 680.619 642.8 667.608 667.26 632.323C697.428 588.805 726.683 669.235 779.635 669.366C810.954 669.443 877.931 636.115 904.602 614.78C929.58 594.799 948.597 458.351 975.876 511.938C996.964 553.364 1007.78 614.78 946.367 740.402C884.951 866.025 857.035 815.658 857.035 815.658L829.119 773.901Z" fill="url(#paint2_linear)"/>
<path d="M608.284 29.6504C695.424 16.7 701.267 135.452 701.267 135.452C701.267 135.452 757.072 55.1977 825.264 90.1967C893.456 125.196 889.314 219.866 802.511 291.471C715.708 363.076 635.113 372.528 635.113 372.528C635.113 372.528 587.933 322.097 547.989 225.772C517.532 152.323 521.143 42.6008 608.284 29.6504Z" fill="#D3687B"/>
<path d="M608.284 29.6504C695.424 16.7 701.267 135.452 701.267 135.452C701.267 135.452 757.072 55.1977 825.264 90.1967C893.456 125.196 889.314 219.866 802.511 291.471C715.708 363.076 635.113 372.528 635.113 372.528C635.113 372.528 587.933 322.097 547.989 225.772C517.532 152.323 521.143 42.6008 608.284 29.6504Z" fill="url(#paint3_linear)"/>
</g>
<defs>
<linearGradient id="paint0_linear" x1="405.331" y1="-206.365" x2="564.439" y2="1680.37" gradientUnits="userSpaceOnUse">
<stop offset="0.018147" stop-color="white"/>
<stop offset="0.319745" stop-color="white" stop-opacity="0.623679"/>
<stop offset="0.516093" stop-color="white" stop-opacity="0.34088"/>
<stop offset="1" stop-color="white" stop-opacity="0"/>
</linearGradient>
<linearGradient id="paint1_linear" x1="172.035" y1="31.8597" x2="236.137" y2="988.037" gradientUnits="userSpaceOnUse">
<stop stop-color="white"/>
<stop offset="1" stop-color="white" stop-opacity="0"/>
</linearGradient>
<linearGradient id="paint2_linear" x1="402.003" y1="215.579" x2="988.241" y2="1011.19" gradientUnits="userSpaceOnUse">
<stop stop-color="white"/>
<stop offset="1" stop-color="white" stop-opacity="0"/>
</linearGradient>
<linearGradient id="paint3_linear" x1="30.0836" y1="-444.261" x2="1151" y2="677.715" gradientUnits="userSpaceOnUse">
<stop offset="0.0833333" stop-color="#FF9B27"/>
<stop offset="0.244792" stop-color="#FE7024"/>
<stop offset="0.395833" stop-color="#FE5523"/>
<stop offset="0.557292" stop-color="#FD3921"/>
<stop offset="0.708333" stop-color="#CB2B3C"/>
<stop offset="0.833333" stop-color="#C51A2D"/>
<stop offset="1" stop-color="#A65563"/>
</linearGradient>
<clipPath id="clip0">
<rect width="1024" height="1024" fill="white"/>
</clipPath>
</defs>
</svg>
